<svg xmlns="http://www.w3.org/2000/svg" xmlns:xlink="http://www.w3.org/1999/xlink" width="512" zoomAndPan="magnify" viewBox="0 0 384 383.999986" height="512" preserveAspectRatio="xMidYMid meet" version="1.0"><path fill="#e80273" d="M 316.4375 194.71875 C 311.742188 208.957031 314.914062 218.511719 317.59375 227.136719 C 324.203125 248.386719 322.316406 269.636719 315.785156 290.597656 C 311.074219 305.707031 303.335938 319.035156 291.859375 330.085938 C 279.847656 341.65625 265.707031 349.492188 249.441406 352.820312 C 239.730469 354.808594 229.730469 356.277344 219.847656 356.347656 C 171.960938 356.695312 124.074219 356.503906 76.183594 356.464844 C 68.453125 356.457031 63.613281 353.679688 63.027344 345.933594 C 62.179688 334.828125 62.097656 323.648438 62.042969 312.496094 C 62.011719 305.625 62.339844 298.710938 63.070312 291.875 C 63.503906 287.800781 64.640625 283.613281 65.945312 279.6875 C 67.773438 274.183594 71.65625 270.359375 77.136719 268.265625 C 84.671875 265.378906 92.21875 262.632812 99.589844 259.34375 C 111.367188 254.085938 119.5 245.546875 122.238281 232.664062 C 122.496094 231.445312 123.179688 226.820312 123.570312 225.625 C 123.898438 225.609375 125.09375 228.167969 125.28125 229.007812 C 125.707031 230.738281 126.296875 232.453125 126.527344 234.214844 C 128.386719 248.464844 130.320312 262.714844 131.914062 277 C 132.425781 281.585938 134.175781 284.835938 138.324219 286.871094 C 143.542969 289.433594 148.570312 292.082031 153.929688 294.292969 C 163.621094 298.285156 171.359375 296.308594 179.519531 290.382812 C 181.339844 289.058594 183.53125 286.671875 184.164062 284.542969 C 187.367188 273.722656 194.320312 265.03125 201.167969 256.484375 C 209.035156 246.664062 216.636719 236.003906 224.285156 226.011719 C 224.9375 225.164062 225.597656 224.324219 226.25 223.480469 C 231.910156 216.121094 238.226562 212.175781 249.363281 213.375 C 260.773438 214.214844 272.378906 214.246094 283.839844 213.304688 C 294.996094 211.410156 302.976562 207.496094 311.0625 200.933594 C 311.613281 200.488281 312.445312 199.796875 313.046875 199.421875 C 313.226562 199.300781 315.734375 195.921875 316.4375 194.71875 Z M 229.945312 341.542969 C 231.257812 341.542969 232.59375 341.726562 233.867188 341.515625 C 257.207031 337.640625 276.269531 326.503906 290.035156 307.1875 C 308.324219 281.535156 311.390625 253.730469 300.371094 224.320312 C 299.898438 223.058594 298.722656 222.0625 297.871094 220.945312 C 297.582031 221.042969 297.296875 221.132812 297.007812 221.230469 C 307.472656 279.601562 285.398438 319.65625 229.945312 341.542969 Z M 229.945312 341.542969 " fill-opacity="1" fill-rule="nonzero"/><path fill="#e80273" d="M 297.722656 187.714844 C 290.214844 185.25 278.335938 182.304688 270.984375 179.441406 C 245.835938 169.640625 226.367188 152.011719 209.019531 131.835938 C 194.550781 115.007812 180.449219 97.792969 163.550781 83.21875 C 151.429688 72.761719 138.097656 64.097656 123.777344 57.0625 C 107.734375 49.183594 91.023438 43.105469 73.347656 39.859375 C 71.359375 39.5 67.507812 38.160156 66.449219 36.535156 C 63.375 31.8125 65.332031 27.199219 70.867188 27.199219 C 115.550781 27.230469 161.695312 27.257812 206.371094 27.277344 C 222.058594 27.285156 237.226562 30.578125 251.167969 37.691406 C 283.839844 54.34375 302.566406 82.128906 306.914062 118.691406 C 309.320312 138.90625 303.550781 156.972656 292.335938 173.5625 C 291.335938 175.042969 290.183594 176.761719 290.367188 178.628906 C 290.496094 179.953125 291.152344 181.148438 291.894531 182.226562 C 292.464844 183.046875 293.015625 183.898438 293.71875 184.609375 C 294.765625 185.675781 296.082031 186.300781 297.25 187.210938 C 297.34375 187.269531 297.78125 187.554688 297.722656 187.714844 Z M 283.421875 160.242188 C 283.847656 160.410156 284.5625 159.804688 285.085938 159.414062 C 285.882812 158.460938 286.703125 157.15625 287.238281 156.070312 C 291.546875 147.355469 293.554688 139.648438 294.363281 130.042969 C 295.785156 113.136719 294.078125 98.039062 285.460938 83.097656 C 277.492188 69.273438 266.617188 57.84375 252.5625 50.203125 C 238.386719 42.496094 222.691406 40.144531 206.734375 40.203125 C 205.378906 40.210938 203.976562 40.0625 202.703125 40.566406 C 202.386719 40.6875 202.070312 40.824219 201.761719 40.960938 C 200.773438 41.40625 200.824219 42.839844 201.84375 43.199219 C 204.847656 44.261719 208.691406 43.980469 211.597656 44.34375 C 216.210938 44.925781 220.902344 45.675781 225.363281 46.992188 C 232.25 49.019531 238.847656 51.953125 245.09375 55.480469 C 280.066406 75.253906 296.152344 117.691406 284.636719 155.4375 C 284.195312 156.902344 283.621094 158.703125 283.421875 160.242188 Z M 283.421875 160.242188 " fill-opacity="1" fill-rule="nonzero"/><path fill="#e80273" d="M 183.683594 208.800781 C 186.167969 213.148438 188.925781 217.324219 191.605469 221.546875 C 192.941406 223.660156 194.265625 225.785156 195.519531 227.941406 C 196.398438 229.460938 197.601562 230.894531 198.007812 232.625 C 198.480469 234.628906 197.890625 237.511719 198.007812 240.066406 C 198.167969 243.582031 196.339844 243.480469 194.449219 242.511719 C 186.59375 238.492188 179.71875 233.246094 180.550781 223.285156 C 180.933594 218.769531 180.449219 211.230469 180.558594 206.695312 C 181.140625 206.578125 181.65625 206.378906 183.683594 208.800781 Z M 183.683594 208.800781 " fill-opacity="1" fill-rule="nonzero"/></svg>